<svg width="92" height="92" viewBox="0 0 92 92" fill="none" xmlns="http://www.w3.org/2000/svg">
<path fill-rule="evenodd" clip-rule="evenodd" d="M52.1909 67.4658L57.8699 67.4581L57.8699 67.4569C76.224 67.3244 91.0495 52.392 91.0245 34.0124C90.9995 15.6329 76.1335 0.740847 57.7791 0.658175L52.1001 0.665894L52.1123 9.65237L56.9915 9.64574L56.9863 5.8593C72.6871 5.92947 85.4037 18.592 85.4249 34.2202C85.4461 49.8483 72.764 62.5454 57.0635 62.6582L57.0088 22.3646L52.1296 22.3713L52.1909 67.4658Z" fill="white"/>
<path fill-rule="evenodd" clip-rule="evenodd" d="M39.9492 67.4823L34.2702 67.49L34.2702 67.4889C15.9158 67.4062 1.04979 52.5142 1.02481 34.1346C0.99983 15.755 15.8253 0.822654 34.1794 0.690091L39.8584 0.682373L39.8706 9.66885L34.9914 9.67548L34.9862 5.88896C19.2857 6.00181 6.60359 18.6989 6.62483 34.327C6.64608 49.9552 19.3627 62.6177 35.0634 62.6879L35.0086 22.3944L39.8879 22.3878L39.9492 67.4823Z" fill="white"/>
<path fill-rule="evenodd" clip-rule="evenodd" d="M48.9003 0.670147L42.6089 0.678697L42.6255 12.8652L27.7959 12.8853L27.8044 19.2042L42.6341 19.1841L42.6997 67.4786L48.991 67.4701L48.9254 19.1755L64.2044 19.1548L64.1958 12.8359L48.9168 12.8566L48.9003 0.670147Z" fill="white"/>
<path d="M10.2229 81.1228L10.2103 71.8492L14.2279 71.8437C15.1687 71.8424 15.9609 71.9998 16.6046 72.3157C17.2482 72.622 17.7385 73.1205 18.0754 73.8113C18.4123 74.4924 18.5816 75.3994 18.5831 76.5322C18.5853 78.1258 18.2173 79.2879 17.479 80.0185C16.7504 80.7491 15.6709 81.1154 14.2405 81.1173L10.2229 81.1228ZM12.5389 79.334L13.9213 79.3321C14.4205 79.3315 14.838 79.2589 15.1738 79.1144C15.5192 78.9604 15.778 78.6816 15.9503 78.2782C16.1321 77.8747 16.2225 77.2938 16.2215 76.5354C16.2205 75.7674 16.1381 75.1771 15.9743 74.7645C15.8201 74.3424 15.5701 74.0499 15.2243 73.8872C14.8881 73.7148 14.4512 73.629 13.9136 73.6297L12.5312 73.6316L12.5389 79.334ZM24.106 81.2479C22.5988 81.2499 21.451 80.8675 20.6628 80.1006C19.8746 79.3336 19.4793 78.139 19.4771 76.5166C19.4748 74.7982 19.8667 73.5641 20.6529 72.8142C21.4391 72.0643 22.5858 71.6884 24.093 71.6863C25.6002 71.6843 26.7479 72.0571 27.5361 72.8048C28.3243 73.5526 28.7196 74.7856 28.7219 76.504C28.7241 78.1264 28.3322 79.3222 27.546 80.0912C26.7598 80.8603 25.6132 81.2459 24.106 81.2479ZM24.1033 79.2751C24.8809 79.274 25.447 79.0525 25.8016 78.6104C26.1658 78.1587 26.3472 77.4576 26.3459 76.5072C26.3445 75.4705 26.1611 74.7411 25.7957 74.3192C25.44 73.8877 24.8733 73.6724 24.0957 73.6735C23.3085 73.6746 22.7328 73.8914 22.3686 74.3239C22.0139 74.7467 21.8373 75.4766 21.8387 76.5134C21.84 77.4638 22.0186 78.1643 22.3744 78.615C22.7398 79.0562 23.3161 79.2762 24.1033 79.2751ZM29.9104 81.096L29.8978 71.8224L32.1874 71.8193L34.7144 76.9567L37.213 71.8125L39.4882 71.8094L39.5008 81.083L37.1824 81.0861L37.1752 75.7581L35.3515 79.5046L34.0699 79.5064L32.2216 75.7649L32.2288 81.0929L29.9104 81.096ZM45.1541 81.2193C44.2901 81.2205 43.5363 81.0823 42.8928 80.8048C42.2588 80.5272 41.7638 80.1151 41.4079 79.5684C41.0615 79.0217 40.8878 78.3499 40.8867 77.5531L40.8789 71.8075L43.1973 71.8043L43.2049 77.3339C43.2057 77.9771 43.3744 78.4569 43.7108 78.7733C44.0472 79.0896 44.5275 79.2473 45.1515 79.2465C45.7755 79.2456 46.2552 79.0866 46.5908 78.7693C46.9264 78.4521 47.0937 77.9719 47.0928 77.3287L47.0853 71.7991L49.4037 71.7959L49.4115 77.5415C49.4126 78.3383 49.2359 79.0105 48.8815 79.5582C48.5366 80.1059 48.0428 80.5194 47.4 80.7986C46.7667 81.0779 46.0181 81.2181 45.1541 81.2193ZM53.7595 81.2076C53.1451 81.2084 52.569 81.1612 52.0313 81.0659C51.5032 80.9803 51.047 80.8513 50.6628 80.679L50.6601 78.7062C51.0827 78.888 51.5485 79.0362 52.0575 79.1507C52.576 79.2652 53.0657 79.3221 53.5265 79.3215C54.1025 79.3207 54.5296 79.2673 54.8079 79.1614C55.0958 79.0554 55.2394 78.8248 55.239 78.4696C55.2386 78.2296 55.1664 78.0377 55.0222 77.8939C54.8876 77.7501 54.6618 77.6256 54.3449 77.5204C54.0375 77.4056 53.6149 77.2718 53.0771 77.1189C52.4433 76.9278 51.939 76.7173 51.5643 76.4874C51.1895 76.2479 50.9203 75.9602 50.7567 75.6245C50.593 75.2887 50.5109 74.876 50.5102 74.3864C50.509 73.5032 50.8249 72.826 51.4578 72.3547C52.0908 71.8835 53.0265 71.647 54.2649 71.6453C54.8025 71.6446 55.3257 71.6871 55.8347 71.7728C56.3436 71.8489 56.7565 71.9395 57.0734 72.0447L57.0761 74.0319C56.6631 73.8692 56.2453 73.7498 55.8228 73.6736C55.4099 73.5973 55.0067 73.5595 54.6131 73.56C54.0947 73.5607 53.6723 73.6093 53.3461 73.7057C53.0294 73.8022 52.8713 74.0232 52.8718 74.3688C52.8721 74.5704 52.9299 74.7335 53.0452 74.8582C53.1606 74.9732 53.3575 75.0785 53.6361 75.1742C53.9242 75.2698 54.3132 75.3844 54.8029 75.5182C55.5616 75.7187 56.1428 75.9628 56.5463 76.2502C56.9499 76.5281 57.2288 76.8541 57.3829 77.2283C57.537 77.5929 57.6143 78.0056 57.615 78.4664C57.6161 79.2824 57.3002 79.9452 56.6673 80.4548C56.0343 80.9549 55.0651 81.2058 53.7595 81.2076Z" fill="white"/>
<path d="M61.8233 81.0526L61.8107 71.779L65.8283 71.7735C66.7691 71.7722 67.5613 71.9296 68.2049 72.2455C68.8485 72.5518 69.3388 73.0504 69.6758 73.7411C70.0127 74.4222 70.1819 75.3292 70.1835 76.462C70.1856 78.0556 69.8176 79.2177 69.0794 79.9483C68.3508 80.6789 67.2713 81.0452 65.8409 81.0471L61.8233 81.0526ZM64.1393 79.2638L65.5217 79.2619C66.0209 79.2613 66.4384 79.1887 66.7742 79.0442C67.1196 78.8902 67.3784 78.6114 67.5506 78.208C67.7325 77.8045 67.8229 77.2236 67.8219 76.4652C67.8208 75.6972 67.7384 75.1069 67.5746 74.6944C67.4205 74.2722 67.1705 73.9797 66.8247 73.817C66.4884 73.6446 66.0515 73.5588 65.5139 73.5596L64.1315 73.5614L64.1393 79.2638ZM71.3717 81.0396L71.3591 71.766L78.1991 71.7567L78.2015 73.5423L73.6799 73.5485L73.6826 75.4925L77.6714 75.487L77.6738 77.3014L73.685 77.3069L73.6877 79.2508L78.2093 79.2447L78.2117 81.0303L71.3717 81.0396ZM79.317 81.0288L79.3044 71.7552L81.6228 71.7521L81.6354 81.0256L79.317 81.0288Z" fill="white"/>
<path d="M11.9446 89.9764C11.351 89.9772 10.9009 89.8155 10.5943 89.4911C10.2915 89.1667 10.1397 88.7282 10.1389 88.1757C10.1384 87.78 10.2014 87.4401 10.3279 87.1562C10.4582 86.8686 10.6558 86.648 10.9206 86.4946C11.1855 86.3375 11.5232 86.2586 11.9339 86.258C12.143 86.2578 12.3334 86.2743 12.5052 86.3077C12.6807 86.3373 12.8431 86.3781 12.9925 86.4302L12.9933 86.9622C12.8439 86.9027 12.6833 86.8581 12.5115 86.8285C12.3434 86.7951 12.1661 86.7785 11.9794 86.7788C11.5314 86.7794 11.2142 86.8993 11.0279 87.1385C10.8453 87.3777 10.7543 87.7231 10.7549 88.1748C10.7555 88.5967 10.8567 88.9176 11.0586 89.1376C11.2605 89.3539 11.5724 89.4617 11.9943 89.4612C12.166 89.4609 12.3377 89.4476 12.5094 89.4213C12.6848 89.3912 12.849 89.3461 13.002 89.2862L13.0028 89.8238C12.8535 89.8725 12.6911 89.9101 12.5157 89.9365C12.344 89.9628 12.1536 89.9762 11.9446 89.9764ZM18.1307 89.912L18.1258 86.3056L20.6402 86.3022L20.6408 86.7782L18.7368 86.7808L18.7383 87.8728L20.4351 87.8705L20.4358 88.3409L18.739 88.3432L18.7404 89.4408L20.6444 89.4382L20.6451 89.9086L18.1307 89.912ZM25.7456 89.9017L25.7407 86.2953L27.3983 86.293C27.8015 86.2925 28.0947 86.3966 28.2779 86.6054C28.4649 86.8105 28.5586 87.0904 28.5591 87.4451C28.5594 87.6989 28.4962 87.9155 28.3695 88.0949C28.2428 88.2743 28.0601 88.3996 27.8212 88.4709C27.8885 88.5193 27.9408 88.5715 27.9783 88.6274C28.0157 88.6834 28.0531 88.758 28.0906 88.8513L28.5456 89.8979L27.9184 89.8987L27.4746 88.8913C27.4334 88.7943 27.3829 88.7253 27.3231 88.6843C27.2671 88.6433 27.17 88.6229 27.0319 88.6231L26.3543 88.624L26.356 89.9008L25.7456 89.9017ZM26.3536 88.1312L27.2384 88.13C27.4586 88.1297 27.6322 88.0754 27.759 87.9669C27.8857 87.8585 27.949 87.6848 27.9487 87.4459C27.948 86.9941 27.7293 86.7686 27.2925 86.7692L26.3517 86.7705L26.3536 88.1312ZM33.6996 89.8909L33.6946 86.2845L34.305 86.2836L34.31 89.89L33.6996 89.8909ZM39.5535 89.8829L39.5486 86.2765L40.1758 86.2757L41.3214 88.6093L42.455 86.2726L43.0822 86.2717L43.0871 89.8781L42.4823 89.8789L42.4788 87.2637L41.5071 89.2587L41.1375 89.2592L40.1548 87.2669L40.1583 89.8821L39.5535 89.8829ZM49.9239 89.9248C49.3527 89.9256 48.925 89.7768 48.6409 89.4786C48.3567 89.1765 48.2142 88.7101 48.2134 88.0791C48.2125 87.4221 48.3537 86.9459 48.637 86.6506C48.9203 86.3552 49.3476 86.2072 49.9188 86.2064C50.4937 86.2056 50.9214 86.3525 51.2018 86.6471C51.4859 86.9416 51.6285 87.4174 51.6294 88.0745C51.6302 88.7054 51.489 89.1723 51.2057 89.4751C50.9261 89.7741 50.4988 89.924 49.9239 89.9248ZM49.9232 89.4096C50.3002 89.4091 50.5764 89.3061 50.7515 89.1005C50.9305 88.8912 51.0196 88.5495 51.019 88.0753C51.0183 87.5751 50.9282 87.2261 50.7487 87.0285C50.573 86.8271 50.2966 86.7267 49.9195 86.7272C49.5462 86.7277 49.2701 86.8289 49.0911 87.0307C48.9159 87.2288 48.8287 87.578 48.8294 88.0783C48.83 88.5524 48.9182 88.8939 49.0939 89.1027C49.2734 89.3078 49.5498 89.4101 49.9232 89.4096ZM56.763 89.8595L56.7581 86.2531L57.2957 86.2524L59.1809 88.9042L59.1773 86.2498L59.7821 86.249L59.787 89.8554L59.2494 89.8561L57.3698 87.2099L57.3734 89.8587L56.763 89.8595ZM65.0341 89.8483L65.0292 86.2419L65.6396 86.2411L65.6445 89.8475L65.0341 89.8483ZM70.7817 89.8405L72.1544 86.2322L72.8376 86.2313L74.2089 89.8358L73.5817 89.8367L73.222 88.9076L71.7717 88.9095L71.4145 89.8396L70.7817 89.8405ZM71.8662 88.439L73.1206 88.4373L72.4912 86.7861L71.8662 88.439ZM79.3452 89.8288L79.3403 86.2224L79.9507 86.2216L79.955 89.3576L81.803 89.3551L81.8036 89.8255L79.3452 89.8288Z" fill="white"/>
</svg>
