<svg width="92" height="68" viewBox="0 0 92 68" fill="none" xmlns="http://www.w3.org/2000/svg">
<path fill-rule="evenodd" clip-rule="evenodd" d="M52.1909 67.4658L57.8699 67.4581L57.8699 67.4569C76.224 67.3244 91.0495 52.392 91.0245 34.0124C90.9995 15.6329 76.1335 0.740847 57.7791 0.658175L52.1001 0.665894L52.1123 9.65237L56.9915 9.64574L56.9863 5.8593C72.6871 5.92947 85.4037 18.592 85.4249 34.2202C85.4461 49.8483 72.764 62.5454 57.0635 62.6582L57.0088 22.3646L52.1296 22.3713L52.1909 67.4658Z" fill="white"/>
<path fill-rule="evenodd" clip-rule="evenodd" d="M39.9492 67.4823L34.2702 67.49L34.2702 67.4889C15.9158 67.4062 1.04979 52.5142 1.02481 34.1346C0.99983 15.755 15.8253 0.822654 34.1794 0.690091L39.8584 0.682373L39.8706 9.66885L34.9914 9.67548L34.9862 5.88896C19.2857 6.00181 6.60359 18.6989 6.62483 34.327C6.64608 49.9552 19.3627 62.6177 35.0634 62.6879L35.0086 22.3944L39.8879 22.3878L39.9492 67.4823Z" fill="white"/>
<path fill-rule="evenodd" clip-rule="evenodd" d="M48.9003 0.670147L42.6089 0.678697L42.6255 12.8652L27.7959 12.8853L27.8044 19.2042L42.6341 19.1841L42.6997 67.4786L48.991 67.4701L48.9254 19.1755L64.2044 19.1548L64.1958 12.8359L48.9168 12.8566L48.9003 0.670147Z" fill="white"/>
</svg>
