<svg width="243" height="68" viewBox="0 0 243 68" fill="none" xmlns="http://www.w3.org/2000/svg">
<path fill-rule="evenodd" clip-rule="evenodd" d="M51.2116 67.7306L56.8906 67.7229L56.8906 67.7217C75.2448 67.5891 90.0702 52.6568 90.0452 34.2772C90.0202 15.8976 75.1543 1.00562 56.7999 0.922946L51.1208 0.930664L51.1331 9.91714L56.0122 9.91051L56.0071 6.12407C71.7078 6.19424 84.4244 18.8568 84.4457 34.4849C84.4669 50.1131 71.7848 62.8102 56.0843 62.923L56.0295 22.6294L51.1503 22.6361L51.2116 67.7306Z" fill="white"/>
<path fill-rule="evenodd" clip-rule="evenodd" d="M38.9699 67.7471L33.2909 67.7548L33.2909 67.7536C14.9365 67.671 0.0705416 52.779 0.0455617 34.3994C0.0205818 16.0198 14.846 1.08742 33.2001 0.954862L38.8792 0.947144L38.8914 9.93362L34.0121 9.94025L34.007 6.15373C18.3065 6.26658 5.62435 18.9637 5.64559 34.5918C5.66683 50.22 18.3834 62.8825 34.0842 62.9527L34.0294 22.6592L38.9087 22.6525L38.9699 67.7471Z" fill="white"/>
<path fill-rule="evenodd" clip-rule="evenodd" d="M47.921 0.934917L41.6297 0.943468L41.6462 13.1299L26.8166 13.1501L26.8252 19.469L41.6548 19.4489L41.7204 67.7434L48.0118 67.7349L47.9462 19.4403L63.2252 19.4195L63.2166 13.1006L47.9376 13.1214L47.921 0.934917Z" fill="white"/>
<path d="M101.468 38.998L101.444 20.9912L109.245 20.9806C111.072 20.9781 112.61 21.2836 113.86 21.897C115.109 22.4918 116.061 23.4598 116.716 24.8011C117.37 26.1237 117.698 27.8848 117.701 30.0844C117.706 33.1787 116.991 35.4352 115.558 36.8538C114.143 38.2725 112.047 38.9837 109.269 38.9874L101.468 38.998ZM105.965 35.5248L108.649 35.5211C109.619 35.5198 110.429 35.3789 111.081 35.0984C111.752 34.7992 112.255 34.258 112.589 33.4746C112.942 32.6912 113.118 31.5632 113.116 30.0906C113.114 28.5994 112.954 27.4532 112.636 26.6521C112.336 25.8323 111.851 25.2644 111.179 24.9484C110.527 24.6138 109.678 24.4471 108.634 24.4486L105.95 24.4522L105.965 35.5248ZM128.425 39.241C125.499 39.245 123.27 38.5024 121.74 37.0132C120.209 35.524 119.442 33.2043 119.437 30.054C119.433 26.7174 120.194 24.321 121.72 22.865C123.247 21.4089 125.473 20.6789 128.4 20.6749C131.327 20.671 133.555 21.3949 135.086 22.8468C136.616 24.2987 137.384 26.693 137.388 30.0297C137.393 33.1799 136.631 35.5017 135.105 36.995C133.578 38.4884 131.352 39.237 128.425 39.241ZM128.42 35.4104C129.93 35.4083 131.029 34.9781 131.718 34.1197C132.425 33.2426 132.777 31.8813 132.775 30.0359C132.772 28.0227 132.416 26.6065 131.706 25.7873C131.016 24.9494 129.915 24.5315 128.405 24.5335C126.877 24.5356 125.759 24.9566 125.052 25.7963C124.363 26.6175 124.02 28.0346 124.023 30.0478C124.025 31.8932 124.372 33.2535 125.063 34.1287C125.773 34.9852 126.892 35.4124 128.42 35.4104ZM139.696 38.9461L139.672 20.9392L144.117 20.9332L149.024 30.9086L153.876 20.9199L158.294 20.9139L158.318 38.9208L153.816 38.9269L153.802 28.5813L150.261 35.856L147.773 35.8594L144.184 28.5944L144.198 38.94L139.696 38.9461ZM169.295 39.1855C167.618 39.1877 166.154 38.9194 164.904 38.3806C163.673 37.8417 162.712 37.0414 162.021 35.9798C161.349 34.9182 161.011 33.6138 161.009 32.0667L160.994 20.9102L165.496 20.9041L165.51 31.6411C165.512 32.8901 165.839 33.8216 166.493 34.4359C167.146 35.0502 168.078 35.3565 169.29 35.3548C170.502 35.3532 171.433 35.0443 172.085 34.4283C172.736 33.8123 173.061 32.8798 173.06 31.6309L173.045 20.8939L177.547 20.8877L177.562 32.0442C177.564 33.5913 177.221 34.8967 176.533 35.9601C175.863 37.0235 174.904 37.8264 173.656 38.3687C172.427 38.9109 170.973 39.1832 169.295 39.1855ZM186.005 39.1628C184.812 39.1644 183.693 39.0727 182.649 38.8877C181.623 38.7213 180.738 38.4709 179.992 38.1364L179.986 34.3057C180.807 34.6588 181.711 34.9465 182.7 35.1688C183.707 35.3911 184.657 35.5017 185.552 35.5005C186.671 35.499 187.5 35.3953 188.04 35.1895C188.599 34.9837 188.878 34.536 188.877 33.8463C188.877 33.3802 188.736 33.0076 188.456 32.7284C188.195 32.4491 187.757 32.2074 187.141 32.0032C186.544 31.7803 185.724 31.5205 184.68 31.2236C183.449 30.8525 182.47 30.4437 181.742 29.9973C181.014 29.5323 180.492 28.9738 180.174 28.3218C179.856 27.6698 179.697 26.8685 179.695 25.9178C179.693 24.2029 180.306 22.8879 181.535 21.9728C182.764 21.0577 184.581 20.5986 186.986 20.5953C188.03 20.5939 189.046 20.6764 190.034 20.8428C191.022 20.9906 191.824 21.1666 192.439 21.3708L192.445 25.2294C191.643 24.9136 190.831 24.6817 190.011 24.5337C189.209 24.3857 188.426 24.3122 187.662 24.3132C186.655 24.3146 185.835 24.4089 185.202 24.5962C184.587 24.7834 184.28 25.2125 184.281 25.8836C184.281 26.2751 184.394 26.5918 184.618 26.8338C184.842 27.0572 185.224 27.2617 185.765 27.4474C186.324 27.6331 187.08 27.8557 188.031 28.1154C189.504 28.5048 190.632 28.9787 191.416 29.5368C192.2 30.0763 192.741 30.7094 193.04 31.4359C193.339 32.1439 193.49 32.9452 193.491 33.84C193.493 35.4244 192.88 36.7115 191.651 37.7011C190.422 38.6721 188.54 39.1593 186.005 39.1628Z" fill="white"/>
<path d="M201.662 38.8618L201.638 20.8549L209.439 20.8443C211.265 20.8419 212.804 21.1473 214.053 21.7608C215.303 22.3556 216.255 23.3236 216.909 24.6648C217.564 25.9874 217.892 27.7485 217.895 29.9481C217.899 33.0425 217.185 35.299 215.751 36.7176C214.337 38.1362 212.241 38.8474 209.463 38.8512L201.662 38.8618ZM206.159 35.3885L208.843 35.3849C209.813 35.3836 210.623 35.2427 211.275 34.9622C211.946 34.663 212.448 34.1217 212.783 33.3384C213.136 32.555 213.312 31.427 213.31 29.9544C213.308 28.4631 213.148 27.3169 212.83 26.5158C212.53 25.696 212.045 25.1282 211.373 24.8122C210.72 24.4775 209.872 24.3109 208.828 24.3123L206.144 24.316L206.159 35.3885ZM220.203 38.8366L220.178 20.8297L233.459 20.8117L233.464 24.2789L224.684 24.2908L224.69 28.0655L232.435 28.055L232.44 31.5781L224.694 31.5886L224.7 35.3633L233.479 35.3514L233.484 38.8186L220.203 38.8366ZM235.63 38.8156L235.606 20.8088L240.107 20.8027L240.132 38.8095L235.63 38.8156Z" fill="white"/>
<path d="M104.812 56.6069C103.659 56.6084 102.785 56.2943 102.19 55.6644C101.602 55.0345 101.307 54.1832 101.305 53.1103C101.304 52.3419 101.427 51.682 101.672 51.1308C101.925 50.5723 102.309 50.144 102.823 49.8461C103.338 49.541 103.993 49.3878 104.791 49.3867C105.197 49.3862 105.567 49.4183 105.9 49.4831C106.241 49.5406 106.556 49.6199 106.846 49.721L106.848 50.754C106.558 50.6384 106.246 50.5519 105.912 50.4943C105.586 50.4295 105.242 50.3974 104.879 50.3979C104.009 50.3991 103.393 50.6319 103.032 51.0963C102.677 51.5607 102.5 52.2315 102.502 53.1087C102.503 53.9278 102.699 54.551 103.091 54.9782C103.483 55.3981 104.089 55.6075 104.908 55.6064C105.241 55.6059 105.575 55.5801 105.908 55.5289C106.249 55.4704 106.568 55.383 106.865 55.2666L106.866 56.3105C106.576 56.4051 106.261 56.478 105.921 56.5292C105.587 56.5804 105.217 56.6063 104.812 56.6069ZM116.823 56.4818L116.814 49.4791L121.696 49.4725L121.697 50.3968L118 50.4018L118.003 52.5222L121.298 52.5177L121.299 53.4311L118.004 53.4356L118.007 55.5668L121.704 55.5618L121.706 56.4752L116.823 56.4818ZM131.609 56.4617L131.6 49.459L134.819 49.4547C135.601 49.4536 136.171 49.6558 136.527 50.0613C136.89 50.4595 137.072 51.0029 137.072 51.6916C137.073 52.1845 136.95 52.6052 136.704 52.9534C136.458 53.3017 136.104 53.5451 135.64 53.6834C135.77 53.7775 135.872 53.8788 135.945 53.9875C136.017 54.0961 136.09 54.241 136.163 54.4221L137.046 56.4543L135.828 56.456L134.967 54.4999C134.887 54.3115 134.789 54.1775 134.673 54.098C134.564 54.0184 134.375 53.9787 134.107 53.9791L132.791 53.9809L132.795 56.4601L131.609 56.4617ZM132.79 53.024L134.508 53.0217C134.936 53.0211 135.273 52.9155 135.519 52.705C135.765 52.4944 135.888 52.1572 135.887 51.6932C135.886 50.8161 135.461 50.3781 134.613 50.3792L132.786 50.3817L132.79 53.024ZM147.054 56.4407L147.044 49.4381L148.23 49.4364L148.239 56.4391L147.054 56.4407ZM158.421 56.4253L158.411 49.4226L159.629 49.421L161.854 53.9523L164.055 49.4149L165.273 49.4133L165.282 56.4159L164.108 56.4175L164.101 51.3395L162.214 55.2131L161.496 55.2141L159.588 51.3457L159.595 56.4237L158.421 56.4253ZM178.557 56.5066C177.448 56.5082 176.618 56.2193 176.066 55.6401C175.514 55.0537 175.238 54.1479 175.236 52.9228C175.234 51.647 175.508 50.7223 176.059 50.1489C176.609 49.5755 177.438 49.288 178.547 49.2865C179.664 49.285 180.494 49.5702 181.039 50.1421C181.59 50.7141 181.867 51.638 181.869 52.9138C181.871 54.1389 181.596 55.0454 181.046 55.6334C180.503 56.214 179.674 56.5051 178.557 56.5066ZM178.556 55.5063C179.288 55.5053 179.824 55.3052 180.164 54.906C180.512 54.4996 180.685 53.8361 180.684 52.9154C180.682 51.944 180.507 51.2665 180.159 50.8827C179.818 50.4918 179.281 50.2968 178.549 50.2978C177.824 50.2987 177.288 50.4952 176.94 50.8871C176.6 51.2718 176.431 51.9498 176.432 52.9212C176.433 53.8418 176.605 54.5049 176.946 54.9104C177.294 55.3086 177.831 55.5072 178.556 55.5063ZM191.837 56.3799L191.828 49.3772L192.871 49.3758L196.532 54.5249L196.525 49.3708L197.699 49.3692L197.709 56.3719L196.665 56.3733L193.015 51.235L193.022 56.3782L191.837 56.3799ZM207.897 56.358L207.888 49.3554L209.073 49.3538L209.083 56.3564L207.897 56.358ZM219.058 56.3429L221.723 49.3366L223.05 49.3348L225.712 56.3338L224.495 56.3355L223.796 54.5314L220.98 54.5352L220.286 56.3412L219.058 56.3429ZM221.163 53.6216L223.599 53.6183L222.377 50.4122L221.163 53.6216ZM235.686 56.3203L235.676 49.3176L236.861 49.316L236.87 55.4053L240.458 55.4004L240.459 56.3138L235.686 56.3203Z" fill="white"/>
</svg>
